<?xml version="1.0" encoding="utf-8"?>
<!-- Generator: Adobe Illustrator 26.0.3, SVG Export Plug-In . SVG Version: 6.00 Build 0)  -->
<svg version="1.0" id="katman_1" xmlns="http://www.w3.org/2000/svg" xmlns:xlink="http://www.w3.org/1999/xlink" x="0px" y="0px"
	 viewBox="0 0 600 450" style="enable-background:new 0 0 600 450;" xml:space="preserve">
<style type="text/css">
	.st0{fill-rule:evenodd;clip-rule:evenodd;fill:#FFFFFF;}
	.st1{fill:#77797E;}
</style>
<g id="Page-1_00000118383086159873637560000016930787967639686557_">
	<g id="Group_00000153706598710046492570000006947784270525291934_">
		<circle id="Oval_00000160166246441628510810000007795333129703951546_" class="st0" cx="300.1" cy="225.4" r="132.5"/>
		<g id="linkedin-gray">
			<path id="Shape_00000103975578359802405890000009672759505725292723_" class="st1" d="M300.1,66.4c-87.5,0-159,71.6-159,159
				s71.6,159,159,159s159-71.6,159-159S387.6,66.4,300.1,66.4z M256.4,304.9h-33.1v-106h33.1V304.9z M239.2,184.3
				c-10.6,0-18.6-9.3-18.6-18.6c0-10.6,8-19.9,18.6-19.9c10.6,0,18.6,8,18.6,18.6C259,175,249.8,184.3,239.2,184.3z M379.6,304.9
				h-33.1v-51.7c0-11.9,0-27.8-17.2-27.8s-19.9,13.3-19.9,27.8v53h-33.1v-106h31.8v14.6l0,0c4-8,14.6-17.2,31.8-17.2
				c33.1,0,39.8,22.5,39.8,50.4V304.9z"/>
		</g>
	</g>
</g>
</svg>
